<svg width="132" height="34" viewBox="0 0 132 34" fill="none" xmlns="http://www.w3.org/2000/svg">
<path d="M16.3896 19.3369C16.4804 19.3124 16.576 19.3115 16.667 19.335L32.2188 23.3438C32.5224 23.4221 32.7004 23.7407 32.6104 24.0449L32.0654 25.8867C31.5063 27.7759 29.7905 29.0693 27.8447 29.0693H12.084L7.08008 33.9219C6.905 34.0916 6.61458 33.9662 6.61426 33.7207V29.0693H5.00488C3.15887 29.0693 1.50829 27.9033 0.870117 26.1475L0.213867 24.3408C0.101772 24.0324 0.275565 23.6931 0.588867 23.6084L16.3896 19.3369ZM6.68164 20.1514L0.15918 21.8916C0.104764 21.9061 0.0522852 21.9252 0 21.9434V16.1465H6.68164V20.1514ZM33.4062 21.7803C33.2714 21.7146 33.1279 21.6615 32.9766 21.623L26.7256 20.0332V16.1465H33.4062V21.7803ZM15.5898 17.7764L8.9082 19.5576V15.5898H15.5898V17.7764ZM24.498 19.4668L17.8164 17.7686V15.5898H24.498V19.4668ZM15.6338 13.9092H8.67969V6.9541H15.6338V13.9092ZM24.1338 13.9092H17.9521V6.9541H24.1338V13.9092ZM16.7031 0C17.318 0 17.8172 0.498407 17.8174 1.11328V3.34082C17.8174 3.43714 17.8023 3.53 17.7793 3.61914C18.8095 3.6522 19.8387 3.73229 20.8633 3.86035C21.0311 3.88132 21.1571 4.02429 21.1572 4.19336V5.06738C21.1572 5.34353 20.9334 5.56738 20.6572 5.56738H12.749C12.473 5.56727 12.249 5.34346 12.249 5.06738V4.19336C12.2491 4.02432 12.3752 3.88137 12.543 3.86035C13.5673 3.73232 14.5961 3.65224 15.626 3.61914C15.603 3.53011 15.5899 3.43701 15.5898 3.34082V1.11328C15.59 0.498522 16.0884 0.000185927 16.7031 0Z" fill="#FEFEFE"/>
<path d="M128.906 27.3621C128.189 27.3621 127.588 27.1283 127.104 26.6608C126.639 26.173 126.406 25.5734 126.406 24.8621C126.406 24.1507 126.639 23.5612 127.104 23.0938C127.588 22.606 128.189 22.3621 128.906 22.3621C129.623 22.3621 130.214 22.606 130.68 23.0938C131.164 23.5612 131.406 24.1507 131.406 24.8621C131.406 25.5734 131.164 26.173 130.68 26.6608C130.214 27.1283 129.623 27.3621 128.906 27.3621Z" fill="white"/>
<path d="M101.406 6.36206C100.546 6.36206 99.8249 6.08157 99.2435 5.5206C98.6853 4.93523 98.4062 4.21572 98.4062 3.36206C98.4062 2.5084 98.6853 1.80108 99.2435 1.24011C99.8249 0.654744 100.546 0.362061 101.406 0.362061C102.267 0.362061 102.976 0.654744 103.534 1.24011C104.116 1.80108 104.406 2.5084 104.406 3.36206C104.406 4.21572 104.116 4.93523 103.534 5.5206C102.976 6.08157 102.267 6.36206 101.406 6.36206Z" fill="white"/>
<path d="M117.369 7.06836C119.004 7.06836 120.478 7.47146 121.791 8.27734C123.127 9.08339 124.175 10.2355 124.935 11.7324C125.718 13.2064 126.109 14.9223 126.109 16.8799C126.109 18.8373 125.718 20.5758 124.935 22.0957C124.175 23.5927 123.127 24.7559 121.791 25.585C120.478 26.414 119.004 26.8291 117.369 26.8291C115.964 26.829 114.721 26.5405 113.639 25.9648C112.579 25.3892 111.716 24.6641 111.048 23.7891V33.6377H106.211V7.37988H111.048V10.1436C111.67 9.2684 112.522 8.54255 113.604 7.9668C114.71 7.36818 115.965 7.06842 117.369 7.06836ZM49.4209 7.06836C51.7008 7.06838 53.5201 7.64443 54.8789 8.7959C56.2377 9.92438 56.9858 11.4561 57.124 13.3906H52.4951C52.426 12.6306 52.1041 12.0313 51.5283 11.5938C50.9756 11.1332 50.2265 10.9033 49.2822 10.9033C48.4073 10.9034 47.7277 11.0643 47.2441 11.3867C46.7836 11.7091 46.5537 12.1587 46.5537 12.7344C46.5538 13.379 46.8759 13.8743 47.5205 14.2197C48.1654 14.5422 49.1676 14.8762 50.5264 15.2217C51.9081 15.5671 53.0482 15.9235 53.9463 16.292C54.8445 16.6605 55.6159 17.2365 56.2607 18.0195C56.9286 18.7795 57.2738 19.7929 57.2969 21.0596C57.2969 22.165 56.9861 23.1551 56.3643 24.0303C55.7655 24.9054 54.8907 25.5969 53.7393 26.1035C52.6109 26.5871 51.2865 26.8291 49.7666 26.8291C48.2006 26.8291 46.7953 26.5527 45.5518 26C44.3081 25.4242 43.318 24.6518 42.5811 23.6846C41.8673 22.7174 41.4754 21.647 41.4062 20.4727H46.2773C46.3695 21.2093 46.7262 21.8192 47.3477 22.3027C47.9924 22.7863 48.7873 23.0283 49.7314 23.0283C50.6526 23.0283 51.3664 22.844 51.873 22.4756C52.4027 22.1071 52.668 21.6353 52.668 21.0596C52.668 20.4379 52.3458 19.9771 51.7012 19.6777C51.0794 19.3553 50.0771 19.0101 48.6953 18.6416C47.2675 18.2962 46.0931 17.9388 45.1719 17.5703C44.2737 17.2018 43.4901 16.6379 42.8223 15.8779C42.1775 15.1179 41.8555 14.0924 41.8555 12.8027C41.8556 11.7435 42.1552 10.7764 42.7539 9.90137C43.3757 9.02636 44.2506 8.33572 45.3789 7.8291C46.5304 7.32243 47.8779 7.06836 49.4209 7.06836ZM67.416 7.06836C69.7881 7.06836 71.746 7.66766 73.2891 8.86523C74.855 10.0398 75.9029 11.6981 76.4326 13.8398H71.2158C70.9395 13.0108 70.4677 12.3659 69.7998 11.9053C69.155 11.4217 68.3491 11.1797 67.3818 11.1797C66 11.1797 64.9057 11.6859 64.0996 12.6992C63.2936 13.6894 62.8907 15.106 62.8906 16.9482C62.8906 18.7674 63.2938 20.184 64.0996 21.1973C64.9057 22.1876 66 22.6836 67.3818 22.6836C69.3393 22.6836 70.617 21.8079 71.2158 20.0576H76.4326C75.9029 22.1303 74.8551 23.7774 73.2891 24.998C71.723 26.2186 69.765 26.8291 67.416 26.8291C65.5737 26.8291 63.9386 26.4252 62.5107 25.6191C61.083 24.7901 59.9662 23.6388 59.1602 22.165C58.3541 20.6681 57.9512 18.9288 57.9512 16.9482C57.9512 14.9678 58.3542 13.2404 59.1602 11.7666C59.9662 10.2698 61.083 9.11851 62.5107 8.3125C63.9386 7.48345 65.5737 7.0684 67.416 7.06836ZM82.7393 9.76367C83.361 8.93464 84.1903 8.2897 85.2266 7.8291C86.2629 7.34546 87.415 7.10352 88.6816 7.10352C90.1322 7.10359 91.4215 7.42569 92.5498 8.07031C93.6782 8.69207 94.554 9.62471 95.1758 10.8682C95.8206 12.0887 96.1425 13.563 96.1426 15.29V26.5176H91.3066V15.9473C91.3066 14.4275 90.9268 13.2641 90.167 12.458C89.407 11.6289 88.3703 11.2139 87.0576 11.2139C85.7219 11.2139 84.6619 11.6289 83.8789 12.458C83.1191 13.2641 82.7393 14.4275 82.7393 15.9473V26.5176H77.9033V0.954102H82.7393V9.76367ZM103.506 26.5176H98.6689V7.37988H103.506V26.5176ZM116.092 11.3174C115.217 11.3174 114.387 11.5483 113.604 12.0088C112.844 12.4464 112.222 13.0912 111.738 13.9434C111.278 14.7953 111.048 15.797 111.048 16.9482C111.048 18.0997 111.278 19.102 111.738 19.9541C112.222 20.8062 112.844 21.4622 113.604 21.9229C114.387 22.3604 115.217 22.5791 116.092 22.5791C116.99 22.579 117.819 22.3492 118.579 21.8887C119.362 21.4281 119.984 20.7718 120.444 19.9199C120.928 19.0679 121.17 18.0543 121.17 16.8799C121.17 15.7284 120.928 14.7373 120.444 13.9082C119.984 13.0563 119.362 12.4112 118.579 11.9736C117.819 11.5361 116.99 11.3175 116.092 11.3174Z" fill="white"/>
</svg>
